<svg width="18" height="18" viewBox="0 0 18 18" fill="none" xmlns="http://www.w3.org/2000/svg">
<g id="check">
<rect width="18" height="18" fill="white" fill-opacity="0.12"/>
<path id="Vector" d="M5.05125 9.2415C4.91584 9.09749 4.72906 9.01276 4.53151 9.00573C4.33396 8.99871 4.14163 9.06996 3.99633 9.20399C3.85103 9.33801 3.76452 9.52398 3.75562 9.72146C3.74671 9.91893 3.81612 10.1119 3.94875 10.2585L6.65775 13.1978C7.0605 13.5923 7.6605 13.5923 8.03325 13.2203L8.30625 12.951C9.29215 11.9814 10.2769 11.0107 11.2605 10.0388L11.2905 10.0088C12.2098 9.1028 13.1243 8.19204 14.034 7.2765C14.17 7.13415 14.2445 6.94405 14.2416 6.74722C14.2386 6.55039 14.1584 6.36262 14.0182 6.22441C13.878 6.08621 13.6891 6.00865 13.4923 6.00848C13.2954 6.00831 13.1064 6.08554 12.966 6.2235C12.0605 7.13426 11.1505 8.04052 10.236 8.94225L10.206 8.97225C9.26346 9.90397 8.31971 10.8345 7.37475 11.7638L5.05125 9.2415Z" fill="#4D4D4D"/>
</g>
</svg>
