<svg width="20" height="20" viewBox="0 0 20 20" fill="none" xmlns="http://www.w3.org/2000/svg">
<path d="M15.3117 3.3983L12.4167 1.74997C12.2724 1.66752 12.1015 1.64507 11.9409 1.68747C11.7812 1.72973 11.6446 1.83335 11.5609 1.9758L5.03171 13.1283C4.99089 13.1982 4.96427 13.2756 4.95337 13.3558L4.38087 17.6333C4.36424 17.7551 4.38467 17.8791 4.43952 17.9891C4.49437 18.0991 4.58109 18.19 4.68837 18.25C4.79588 18.3114 4.91907 18.3399 5.04264 18.3319C5.1662 18.3239 5.28469 18.2798 5.38338 18.205L8.85254 15.5766C8.91758 15.5272 8.97223 15.4655 9.01337 15.395L13.9217 7.00913L15.54 4.24413C15.5813 4.17378 15.6081 4.09592 15.619 4.01509C15.6298 3.93426 15.6245 3.85208 15.6032 3.77334C15.582 3.6946 15.5452 3.62089 15.4952 3.5565C15.4451 3.49211 15.3828 3.43833 15.3117 3.3983ZM7.98921 14.6708L5.82254 16.3133L6.18087 13.64L10.7142 5.89497L12.5242 6.9258L7.98921 14.6708ZM13.15 5.85497L11.34 4.82413L12.3334 3.12997L14.1417 4.15997L13.15 5.85497Z" fill="black" fill-opacity="0.65"/>
</svg>
