<svg width="25" height="24" viewBox="0 0 25 24" fill="none" xmlns="http://www.w3.org/2000/svg">
<g id="Outline / Essentional, UI / Trash Bin Minimalistic 2 ">
<g id="Vector">
<path d="M10.7436 4.24993C11.0528 3.37503 11.8873 2.75 12.8658 2.75C13.8442 2.75 14.6787 3.37503 14.9879 4.24993C15.126 4.64047 15.5544 4.84517 15.945 4.70713C16.3355 4.56909 16.5402 4.1406 16.4022 3.75007C15.8877 2.29459 14.4997 1.25 12.8658 1.25C11.2318 1.25 9.84377 2.29459 9.32933 3.75007C9.19129 4.1406 9.39599 4.56909 9.78652 4.70713C10.1771 4.84517 10.6056 4.64047 10.7436 4.24993Z" fill="#4D4D4D"/>
<path d="M3.61572 6C3.61572 5.58579 3.95151 5.25 4.36572 5.25H21.3658C21.78 5.25 22.1158 5.58579 22.1158 6C22.1158 6.41421 21.78 6.75 21.3658 6.75H4.36572C3.95151 6.75 3.61572 6.41421 3.61572 6Z" fill="#4D4D4D"/>
<path d="M5.98258 7.75166C6.39588 7.72411 6.75325 8.03681 6.78081 8.45011L7.24075 15.3492C7.33061 16.6971 7.39463 17.6349 7.5352 18.3405C7.67155 19.025 7.86188 19.3873 8.1353 19.6431C8.40871 19.8988 8.78287 20.0647 9.47487 20.1552C10.1883 20.2485 11.1283 20.25 12.4791 20.25H13.2525C14.6033 20.25 15.5433 20.2485 16.2567 20.1552C16.9487 20.0647 17.3229 19.8988 17.5963 19.6431C17.8697 19.3873 18.0601 19.025 18.1964 18.3405C18.337 17.6349 18.401 16.6971 18.4909 15.3492L18.9508 8.45011C18.9783 8.03681 19.3357 7.72411 19.749 7.75166C20.1623 7.77921 20.475 8.13659 20.4475 8.54989L19.984 15.5016C19.8985 16.7844 19.8295 17.8205 19.6675 18.6336C19.4991 19.4789 19.2127 20.185 18.6211 20.7384C18.0295 21.2919 17.3059 21.5307 16.4513 21.6425C15.6292 21.75 14.5908 21.75 13.3052 21.75H12.4264C11.1408 21.75 10.1024 21.75 9.28031 21.6425C8.42566 21.5307 7.70212 21.2919 7.11052 20.7384C6.51893 20.185 6.23251 19.4789 6.06411 18.6336C5.90213 17.8205 5.83307 16.7844 5.74758 15.5016L5.28413 8.54989C5.25658 8.13659 5.56928 7.77921 5.98258 7.75166Z" fill="#4D4D4D"/>
</g>
</g>
</svg>
